<mxfile host="65bd71144e">
    <diagram id="imP2AydOmXhhBCqcaYac" name="Page-1">
        <mxGraphModel dx="760" dy="487" grid="1" gridSize="10" guides="1" tooltips="1" connect="1" arrows="1" fold="1" page="1" pageScale="1" pageWidth="850" pageHeight="1100" math="0" shadow="0">
            <root>
                <mxCell id="0"/>
                <mxCell id="1" parent="0"/>
                <mxCell id="2" value="architecture for" style="rounded=1;whiteSpace=wrap;html=1;sketch=1;hachureGap=4;jiggle=2;curveFitting=1;fontFamily=Architects Daughter;fontSource=https%3A%2F%2Ffonts.googleapis.com%2Fcss%3Ffamily%3DArchitects%2BDaughter;fontSize=20;" vertex="1" parent="1">
                    <mxGeometry x="30" y="30" width="220" height="100" as="geometry"/>
                </mxCell>
                <mxCell id="3" value="csdsc" style="rounded=0;whiteSpace=wrap;html=1;sketch=1;hachureGap=4;jiggle=2;curveFitting=1;fontFamily=Architects Daughter;fontSource=https%3A%2F%2Ffonts.googleapis.com%2Fcss%3Ffamily%3DArchitects%2BDaughter;fontSize=20;dashed=1;dashPattern=8 8;flipH=1;flipV=0;" vertex="1" parent="1">
                    <mxGeometry x="275" y="220" width="150" height="100" as="geometry"/>
                </mxCell>
                <mxCell id="8" value="" style="curved=1;endArrow=classic;html=1;sketch=1;hachureGap=4;jiggle=2;curveFitting=1;fontFamily=Architects Daughter;fontSource=https%3A%2F%2Ffonts.googleapis.com%2Fcss%3Ffamily%3DArchitects%2BDaughter;fontSize=16;exitX=0.472;exitY=1.036;exitDx=0;exitDy=0;exitPerimeter=0;entryX=0.436;entryY=-0.016;entryDx=0;entryDy=0;entryPerimeter=0;" edge="1" parent="1" source="2" target="3">
                    <mxGeometry width="50" height="50" relative="1" as="geometry">
                        <mxPoint x="190" y="200" as="sourcePoint"/>
                        <mxPoint x="250" y="140" as="targetPoint"/>
                        <Array as="points">
                            <mxPoint x="130" y="190"/>
                            <mxPoint x="160" y="180"/>
                            <mxPoint x="410" y="190"/>
                        </Array>
                    </mxGeometry>
                </mxCell>
            </root>
        </mxGraphModel>
    </diagram>
</mxfile>